<mxfile host="app.diagrams.net" modified="2023-06-01T22:48:08.831Z" agent="Mozilla/5.0 (Windows NT 10.0; Win64; x64) AppleWebKit/537.36 (KHTML, like Gecko) Chrome/113.0.0.0 Safari/537.36" version="21.3.6" etag="zv62Nab0P0PRfct81EOi" type="device">
  <diagram id="XXl_H34ab_tyzRmCYt6y" name="Page-1">
    <mxGraphModel dx="1120" dy="452" grid="1" gridSize="10" guides="1" tooltips="1" connect="1" arrows="1" fold="1" page="1" pageScale="2" pageWidth="827" pageHeight="1169" math="0" shadow="0">
      <root>
        <mxCell id="0" />
        <mxCell id="1" parent="0" />
        <mxCell id="3e-l5eqaJC0T7oNDOOS3-1" value="" style="group" vertex="1" connectable="0" parent="1">
          <mxGeometry x="30" y="120" width="755" height="550" as="geometry" />
        </mxCell>
        <mxCell id="3e-l5eqaJC0T7oNDOOS3-2" value="" style="rounded=0;whiteSpace=wrap;html=1;" vertex="1" parent="3e-l5eqaJC0T7oNDOOS3-1">
          <mxGeometry x="245" width="510" height="550" as="geometry" />
        </mxCell>
        <mxCell id="3e-l5eqaJC0T7oNDOOS3-3" value="&lt;font style=&quot;font-size: 16px;&quot;&gt;&lt;u&gt;Reports Page&lt;/u&gt;&lt;/font&gt;" style="text;html=1;strokeColor=none;fillColor=none;align=center;verticalAlign=middle;whiteSpace=wrap;rounded=0;" vertex="1" parent="3e-l5eqaJC0T7oNDOOS3-1">
          <mxGeometry x="360" y="20" width="290" height="30" as="geometry" />
        </mxCell>
        <mxCell id="3e-l5eqaJC0T7oNDOOS3-4" style="edgeStyle=orthogonalEdgeStyle;rounded=0;orthogonalLoop=1;jettySize=auto;html=1;exitX=0.5;exitY=1;exitDx=0;exitDy=0;" edge="1" parent="3e-l5eqaJC0T7oNDOOS3-1" source="3e-l5eqaJC0T7oNDOOS3-2" target="3e-l5eqaJC0T7oNDOOS3-2">
          <mxGeometry relative="1" as="geometry" />
        </mxCell>
        <mxCell id="3e-l5eqaJC0T7oNDOOS3-5" value="" style="group" vertex="1" connectable="0" parent="3e-l5eqaJC0T7oNDOOS3-1">
          <mxGeometry y="90" width="650" height="420" as="geometry" />
        </mxCell>
        <mxCell id="3e-l5eqaJC0T7oNDOOS3-6" value="" style="ellipse;whiteSpace=wrap;html=1;" vertex="1" parent="3e-l5eqaJC0T7oNDOOS3-5">
          <mxGeometry x="360" width="290" height="110" as="geometry" />
        </mxCell>
        <mxCell id="3e-l5eqaJC0T7oNDOOS3-7" value="&lt;font style=&quot;font-size: 16px;&quot;&gt;Access to Reports Page&lt;/font&gt;" style="text;html=1;strokeColor=none;fillColor=none;align=center;verticalAlign=middle;whiteSpace=wrap;rounded=0;" vertex="1" parent="3e-l5eqaJC0T7oNDOOS3-5">
          <mxGeometry x="360" y="40" width="290" height="30" as="geometry" />
        </mxCell>
        <mxCell id="3e-l5eqaJC0T7oNDOOS3-8" value="" style="ellipse;whiteSpace=wrap;html=1;" vertex="1" parent="3e-l5eqaJC0T7oNDOOS3-5">
          <mxGeometry x="360" y="150" width="290" height="110" as="geometry" />
        </mxCell>
        <mxCell id="3e-l5eqaJC0T7oNDOOS3-9" value="&lt;font style=&quot;font-size: 16px;&quot;&gt;Resolve a reported answer&lt;br&gt;&lt;/font&gt;" style="text;html=1;strokeColor=none;fillColor=none;align=center;verticalAlign=middle;whiteSpace=wrap;rounded=0;" vertex="1" parent="3e-l5eqaJC0T7oNDOOS3-5">
          <mxGeometry x="370" y="180" width="270" height="50" as="geometry" />
        </mxCell>
        <mxCell id="3e-l5eqaJC0T7oNDOOS3-10" value="" style="ellipse;whiteSpace=wrap;html=1;" vertex="1" parent="3e-l5eqaJC0T7oNDOOS3-5">
          <mxGeometry x="360" y="310" width="290" height="110" as="geometry" />
        </mxCell>
        <mxCell id="3e-l5eqaJC0T7oNDOOS3-11" value="&lt;font style=&quot;font-size: 16px;&quot;&gt;Delete previous reports&lt;br&gt;&lt;/font&gt;" style="text;html=1;strokeColor=none;fillColor=none;align=center;verticalAlign=middle;whiteSpace=wrap;rounded=0;" vertex="1" parent="3e-l5eqaJC0T7oNDOOS3-5">
          <mxGeometry x="360" y="350" width="290" height="30" as="geometry" />
        </mxCell>
        <mxCell id="3e-l5eqaJC0T7oNDOOS3-12" value="Moderator" style="shape=umlActor;verticalLabelPosition=bottom;verticalAlign=top;html=1;outlineConnect=0;fontSize=16;align=center;" vertex="1" parent="3e-l5eqaJC0T7oNDOOS3-5">
          <mxGeometry y="140" width="50" height="130" as="geometry" />
        </mxCell>
        <mxCell id="3e-l5eqaJC0T7oNDOOS3-13" value="" style="endArrow=none;html=1;rounded=0;entryX=0;entryY=0.5;entryDx=0;entryDy=0;" edge="1" parent="3e-l5eqaJC0T7oNDOOS3-5" source="3e-l5eqaJC0T7oNDOOS3-12" target="3e-l5eqaJC0T7oNDOOS3-7">
          <mxGeometry width="50" height="50" relative="1" as="geometry">
            <mxPoint x="440" y="110" as="sourcePoint" />
            <mxPoint x="140" y="-20" as="targetPoint" />
            <Array as="points">
              <mxPoint x="210" y="120" />
            </Array>
          </mxGeometry>
        </mxCell>
        <mxCell id="3e-l5eqaJC0T7oNDOOS3-14" value="" style="endArrow=none;html=1;rounded=0;entryX=0;entryY=0.5;entryDx=0;entryDy=0;" edge="1" parent="3e-l5eqaJC0T7oNDOOS3-5" target="3e-l5eqaJC0T7oNDOOS3-9">
          <mxGeometry width="50" height="50" relative="1" as="geometry">
            <mxPoint x="50" y="220" as="sourcePoint" />
            <mxPoint x="360" y="81" as="targetPoint" />
            <Array as="points" />
          </mxGeometry>
        </mxCell>
        <mxCell id="3e-l5eqaJC0T7oNDOOS3-15" value="" style="endArrow=none;html=1;rounded=0;entryX=0;entryY=0.5;entryDx=0;entryDy=0;exitX=1;exitY=1;exitDx=0;exitDy=0;exitPerimeter=0;" edge="1" parent="3e-l5eqaJC0T7oNDOOS3-5" source="3e-l5eqaJC0T7oNDOOS3-12" target="3e-l5eqaJC0T7oNDOOS3-11">
          <mxGeometry width="50" height="50" relative="1" as="geometry">
            <mxPoint x="440" y="240" as="sourcePoint" />
            <mxPoint x="490" y="190" as="targetPoint" />
          </mxGeometry>
        </mxCell>
      </root>
    </mxGraphModel>
  </diagram>
</mxfile>
